<?xml version="1.0" standalone="no"?>
<!DOCTYPE svg PUBLIC "-//W3C//DTD SVG 20010904//EN"
 "http://www.w3.org/TR/2001/REC-SVG-20010904/DTD/svg10.dtd">
<svg version="1.0" xmlns="http://www.w3.org/2000/svg"
 width="1024.000000pt" height="1024.000000pt" viewBox="0 0 1024.000000 1024.000000"
 preserveAspectRatio="xMidYMid meet">

<g transform="translate(0.000000,1024.000000) scale(0.100000,-0.100000)"
fill="#000000" stroke="#ffffff">
<path d="M6102 8587 c-10 -202 -138 -371 -332 -438 -55 -19 -86 -23 -205 -23
-92 0 -175 6 -241 17 -224 40 -424 38 -555 -6 -40 -14 -69 -19 -69 -13 0 6 33
42 73 81 75 74 179 135 286 170 63 20 55 29 -34 39 -87 9 -241 -17 -341 -58
-198 -81 -383 -267 -439 -442 -9 -28 -22 -85 -30 -125 -9 -53 -13 -64 -14 -38
-1 50 -35 154 -68 211 -69 117 -194 207 -301 216 l-56 5 19 -29 c101 -154 163
-331 165 -467 l0 -39 -32 22 c-50 33 -169 88 -207 95 l-35 7 41 -46 c53 -61
173 -264 173 -294 0 -5 -23 -19 -50 -31 -142 -64 -247 -182 -280 -313 -10 -40
-14 -44 -36 -40 -37 7 -81 -16 -169 -87 -260 -210 -497 -478 -651 -736 -75
-127 -198 -389 -249 -530 -61 -167 -118 -391 -147 -575 -20 -129 -23 -180 -23
-450 0 -324 7 -399 61 -648 92 -433 280 -829 570 -1202 109 -141 334 -369 471
-478 323 -258 729 -463 1127 -567 262 -69 478 -96 766 -96 308 1 539 33 831
117 513 147 915 381 1285 749 189 188 246 257 380 455 141 209 218 357 312
595 244 617 275 1319 87 1944 -144 477 -364 856 -689 1189 -92 94 -125 122
-145 122 -39 0 -69 -26 -82 -70 -11 -35 -9 -44 14 -92 15 -30 85 -128 157
-218 248 -310 381 -545 495 -872 165 -475 193 -1021 79 -1536 -50 -223 -169
-540 -275 -727 -59 -104 -150 -245 -159 -245 -3 0 -27 67 -54 148 -54 163 -97
254 -130 276 -12 7 -128 57 -257 110 -395 161 -468 191 -653 271 -210 90 -438
197 -586 276 -125 67 -119 52 -119 286 l-1 151 67 37 c284 156 512 491 549
807 l7 58 56 27 c76 38 168 132 214 220 44 84 180 451 173 468 -2 7 -37 37
-78 67 -65 49 -118 98 -107 98 2 0 27 -7 54 -16 68 -20 207 -21 277 0 74 21
165 83 234 159 l56 62 -89 6 c-191 14 -331 100 -494 304 -16 20 -16 20 87 17
198 -7 354 57 489 200 85 90 135 184 165 308 27 115 26 118 -19 77 -60 -54
-98 -70 -182 -75 -117 -7 -216 28 -364 127 -126 85 -229 144 -300 172 l-70 28
88 1 c199 0 312 89 350 277 22 109 29 193 17 193 -5 0 -10 -5 -10 -11 0 -20
-134 -150 -200 -194 -146 -96 -289 -133 -545 -141 -140 -4 -167 -2 -151 8 160
109 213 207 203 382 -2 52 -13 119 -25 156 -20 61 -105 210 -120 210 -4 0 -8
-24 -10 -53z m-1147 -1580 c171 -85 735 -251 761 -224 3 3 -11 14 -33 25 -48
25 -122 90 -165 145 l-33 42 38 -32 c44 -38 90 -63 167 -89 47 -16 86 -19 255
-19 110 0 222 2 248 5 l49 5 28 -78 c22 -59 70 -255 70 -284 0 -2 -26 -1 -57
2 -177 19 -339 -58 -404 -191 l-24 -50 -80 1 c-44 0 -90 -3 -101 -8 -19 -7
-22 -3 -28 32 -3 22 -13 46 -21 54 -24 25 -189 49 -330 49 -234 1 -359 -33
-643 -172 -112 -55 -206 -100 -208 -100 -2 0 -4 10 -4 23 0 12 -26 124 -58
248 l-57 226 55 -41 c30 -22 66 -49 79 -60 l24 -21 -7 51 c-3 28 -27 116 -52
195 -46 148 -86 300 -80 307 2 2 30 -13 62 -34 167 -107 471 -204 634 -203 85
0 85 0 44 13 -106 33 -211 116 -263 208 -43 74 -39 84 17 44 26 -18 79 -49
117 -69z m-1387 -234 c2 -1 -7 -30 -21 -65 -65 -163 -75 -357 -25 -487 14 -36
29 -66 34 -68 5 -1 38 36 73 82 35 47 68 85 72 85 5 0 9 -13 9 -29 0 -55 49
-185 95 -253 l45 -67 -40 -58 c-49 -69 -69 -132 -77 -238 -13 -188 66 -364
214 -476 93 -70 329 -159 423 -159 33 0 48 -12 95 -80 21 -30 60 -81 87 -112
l48 -56 0 -291 0 -290 -122 -69 c-305 -172 -503 -267 -1077 -513 -107 -46
-207 -94 -223 -107 -24 -20 -124 -211 -189 -361 l-15 -34 -54 84 c-218 339
-356 747 -400 1182 -16 154 -8 544 14 687 100 645 414 1230 892 1661 l88 79
25 -23 c14 -12 28 -23 29 -24z m2763 -393 c17 -10 19 -22 19 -115 l0 -105 -80
0 c-68 0 -82 -3 -87 -17 -12 -30 -8 -165 6 -221 17 -66 61 -116 96 -110 l25 5
0 -108 0 -109 -43 0 c-53 0 -131 37 -174 82 -37 40 -99 189 -114 277 -14 78
-6 216 16 288 21 70 56 110 113 127 55 17 195 21 223 6z m-893 -200 c131 -26
124 -17 126 -168 2 -206 -75 -356 -214 -420 -191 -89 -385 60 -460 352 -20 79
-28 244 -12 261 4 4 106 5 227 2 168 -4 246 -11 333 -27z m392 -155 c0 -109
16 -161 61 -197 48 -38 50 -65 15 -170 -13 -40 -27 -89 -30 -108 l-6 -35 28
30 c15 17 36 43 48 59 l21 29 54 -44 c67 -55 148 -91 218 -97 l53 -5 -6 -57
c-13 -110 -90 -280 -187 -412 -76 -101 -218 -232 -291 -267 -186 -88 -435 -93
-674 -15 -182 59 -394 182 -534 309 -75 68 -85 78 -148 149 -23 27 -36 35 -45
28 -7 -6 -39 -18 -72 -27 -51 -15 -68 -16 -125 -6 -267 50 -435 349 -339 606
23 62 86 126 144 145 49 16 139 8 199 -18 64 -29 136 -106 182 -196 37 -71 39
-74 47 -48 4 15 10 67 14 116 l6 89 76 34 c86 40 202 85 206 81 2 -2 12 -41
24 -86 79 -308 303 -495 541 -453 71 13 158 57 214 109 89 83 154 244 163 402
2 52 6 101 8 108 3 8 26 12 70 12 l65 0 0 -65z m815 13 c-12 -59 -46 -162 -73
-217 -26 -52 -145 -191 -155 -181 -3 3 -2 98 1 212 4 179 7 208 21 211 9 3 60
5 114 6 l99 1 -7 -32z m-975 -1710 c0 -145 4 -268 8 -275 4 -6 60 -37 124 -69
l117 -57 -19 -36 c-55 -106 -222 -258 -352 -320 -205 -97 -394 -112 -584 -47
-57 19 -169 69 -182 82 -2 1 28 62 68 134 l72 132 131 -131 c72 -71 133 -129
134 -127 2 2 -38 98 -153 363 -7 17 -18 34 -24 38 -5 3 -37 -13 -71 -35 -142
-97 24 69 370 370 124 107 234 205 245 216 15 16 34 22 69 23 l47 1 0 -262z
m444 -469 c36 -17 66 -35 66 -39 0 -15 -74 -118 -139 -195 -155 -182 -367
-311 -584 -356 -127 -26 -135 -25 -130 9 11 68 11 69 60 82 70 17 177 65 273
123 108 65 278 232 341 334 24 40 45 73 45 73 1 0 32 -14 68 -31z m561 -243
c121 -51 316 -130 433 -176 118 -47 218 -92 222 -101 15 -27 130 -406 130
-426 0 -20 -312 -335 -377 -381 l-33 -23 0 24 c0 77 -42 593 -49 600 -5 5 -11
-3 -15 -17 -3 -13 -33 -89 -67 -168 -82 -194 -163 -404 -218 -573 l-46 -140
-115 -57 -115 -56 -7 121 c-4 67 -11 194 -15 282 l-8 160 -13 -70 c-16 -86
-95 -415 -122 -506 l-20 -66 -128 -36 c-136 -39 -269 -68 -422 -93 -115 -18
-437 -29 -581 -20 l-105 8 -170 186 c-244 267 -430 485 -551 648 -18 25 -14 1
28 -151 27 -99 74 -259 103 -355 68 -223 70 -230 53 -230 -26 0 -57 32 -110
113 -98 152 -187 308 -334 587 l-13 25 0 -25 c0 -14 16 -133 35 -265 19 -132
35 -250 35 -262 0 -21 -1 -20 -56 9 -30 17 -59 40 -64 52 -10 24 -30 400 -30
546 0 53 5 134 11 180 9 76 18 119 50 241 6 26 41 67 134 160 69 68 130 125
134 127 5 2 35 -20 67 -49 118 -104 286 -201 446 -258 146 -51 235 -65 413
-65 166 -1 255 12 381 53 32 11 60 19 61 18 1 -2 -47 -41 -107 -87 -60 -47
-110 -89 -110 -93 -1 -39 102 21 333 195 226 170 381 327 494 495 l54 82 82
-36 c45 -19 181 -77 302 -127z"/>
<path d="M5140 6751 c-222 -61 -430 -201 -534 -360 -20 -30 -34 -56 -32 -58 2
-2 27 13 57 33 85 57 241 128 403 184 215 74 289 115 309 172 17 49 -81 63
-203 29z"/>
<path d="M5841 6761 c-21 -4 -42 -17 -55 -34 l-21 -28 20 -36 c25 -46 70 -69
165 -84 72 -11 326 -7 338 6 13 12 -76 87 -142 119 -98 47 -227 71 -305 57z"/>
<path d="M2902 4838 c-7 -7 -12 -22 -12 -35 0 -27 42 -42 65 -23 28 23 11 70
-25 70 -9 0 -21 -5 -28 -12z"/>
<path d="M3057 4092 c-24 -26 -21 -68 5 -86 29 -20 41 -20 66 2 32 27 36 58
13 81 -26 26 -63 27 -84 3z"/>
<path d="M5253 6156 c-45 -6 -85 -15 -90 -19 -16 -17 -16 -193 1 -250 62 -213
216 -116 220 138 1 106 -7 145 -32 144 -9 -1 -54 -7 -99 -13z"/>
<path d="M4043 5779 c-33 -10 -83 -60 -83 -84 0 -10 10 -7 36 10 38 26 88 32
114 15 13 -9 12 -13 -6 -28 -34 -28 -52 -63 -60 -118 -12 -92 41 -170 129
-190 40 -8 45 2 15 34 -36 38 -48 65 -48 106 0 41 37 76 81 76 26 0 29 3 29
33 0 87 -119 170 -207 146z"/>
<path d="M5798 5628 c-29 -46 -27 -76 3 -37 21 28 41 79 31 79 -4 0 -19 -19
-34 -42z"/>
<path d="M5804 5326 c-33 -15 -104 -91 -104 -113 0 -10 13 -7 48 11 79 40 123
48 171 31 39 -14 41 -13 41 6 0 11 -13 34 -29 50 -33 33 -75 37 -127 15z"/>
<path d="M4142 3255 l-100 -84 -6 -88 c-4 -48 -10 -108 -13 -133 l-6 -45 64
70 c35 38 103 112 152 164 48 52 87 98 87 103 0 4 -17 8 -39 8 l-39 0 6 45 c2
25 2 45 -1 45 -3 0 -50 -38 -105 -85z"/>
<path d="M6121 3254 c0 -16 6 -107 12 -203 l12 -174 87 109 87 109 -32 33
c-18 19 -62 61 -99 94 -67 59 -68 60 -67 32z"/>
<path d="M7241 3048 c-50 -122 -100 -279 -80 -248 5 8 32 53 59 100 48 82 55
109 41 158 -6 22 -7 22 -20 -10z"/>
<path d="M5001 2947 c59 -50 99 -80 103 -76 9 10 47 91 44 94 -2 1 -43 5 -92
7 l-90 5 35 -30z"/>
<path d="M7642 4508 c-18 -18 -15 -56 6 -66 20 -11 60 2 68 22 15 39 -44 74
-74 44z"/>
</g>
</svg>
