<?xml version="1.0" standalone="no"?>
<!DOCTYPE svg PUBLIC "-//W3C//DTD SVG 20010904//EN"
 "http://www.w3.org/TR/2001/REC-SVG-20010904/DTD/svg10.dtd">
<svg version="1.0" xmlns="http://www.w3.org/2000/svg"
 width="2048.000000pt" height="2048.000000pt" viewBox="0 0 2048.000000 2048.000000"
 preserveAspectRatio="xMidYMid meet">

<g transform="translate(0.000000,2048.000000) scale(0.100000,-0.100000)"
fill="#000000" stroke="#ffffff">
<path d="M12992 20118 c-6 -8 -12 -102 -14 -223 -5 -238 -14 -278 -104 -457
-162 -322 -349 -517 -628 -652 -267 -129 -492 -162 -936 -137 -234 14 -351 27
-640 76 -437 74 -618 91 -875 82 -245 -9 -443 -56 -644 -153 -63 -30 -116 -53
-118 -50 -11 11 122 181 212 271 118 119 326 260 546 371 48 24 154 64 235 89
197 60 234 74 234 89 0 31 -553 25 -827 -9 -343 -42 -524 -108 -782 -283 -307
-208 -647 -555 -756 -772 -67 -133 -121 -324 -179 -636 -48 -255 -54 -268 -53
-109 1 140 -1 149 -68 330 -110 296 -299 557 -498 688 -115 76 -316 157 -449
181 -180 32 -221 30 -162 -8 38 -26 218 -304 284 -440 63 -130 120 -292 177
-506 36 -132 37 -140 37 -322 1 -161 -1 -190 -15 -204 -20 -20 -35 -13 -109
50 -95 81 -348 224 -472 265 -110 38 -145 45 -153 31 -9 -15 10 -42 94 -130
104 -109 233 -311 496 -775 46 -82 50 -76 -92 -135 -293 -122 -405 -190 -528
-322 -256 -275 -379 -599 -380 -1003 0 -165 1 -174 38 -312 l37 -142 -41 -93
c-118 -271 -146 -356 -173 -548 -35 -247 -30 -398 19 -645 31 -156 88 -351
119 -414 47 -91 82 -78 135 48 36 86 86 159 225 332 l101 127 7 -117 c9 -157
32 -288 67 -375 46 -115 221 -407 308 -514 l36 -44 -45 -46 c-85 -88 -142
-191 -200 -362 -111 -327 -123 -655 -37 -955 82 -281 219 -530 367 -665 155
-142 442 -296 762 -408 l105 -37 220 1 c175 1 231 4 275 18 30 9 62 20 70 26
32 20 86 -33 290 -290 46 -58 130 -151 187 -208 l103 -104 12 -219 c6 -120 10
-221 7 -223 -2 -3 -36 4 -74 15 -105 30 -317 59 -429 59 -182 0 -379 -41 -509
-106 -317 -160 -713 -549 -1011 -994 -189 -282 -297 -467 -407 -695 -112 -232
-165 -384 -189 -546 -18 -124 9 -287 65 -387 30 -53 33 -49 -75 -88 -382 -138
-895 -363 -1115 -489 -175 -101 -343 -248 -426 -375 -82 -125 -144 -276 -200
-489 -73 -279 -109 -375 -311 -836 -314 -714 -414 -1177 -603 -2800 -14 -121
-32 -276 -40 -345 -8 -69 -26 -226 -41 -350 -14 -124 -32 -252 -40 -285 -24
-95 -82 -200 -177 -316 -48 -60 -87 -111 -87 -114 0 -3 760 -5 1689 -5 l1690
0 -14 33 c-25 60 19 348 65 422 29 47 27 46 317 120 118 30 169 53 246 112 77
59 347 324 347 341 0 20 -17 14 -67 -24 -63 -48 -101 -64 -198 -80 -44 -7
-123 -22 -175 -33 -230 -50 -340 -9 -394 147 -48 136 -68 388 -67 867 1 944
38 1404 156 1920 24 105 60 280 80 389 69 377 127 522 261 657 82 84 193 139
374 185 167 42 302 59 855 111 207 20 451 22 780 9 185 -8 218 -7 280 9 91 22
219 82 303 141 l67 47 180 -23 c270 -35 333 -38 541 -27 l191 10 37 -29 c50
-39 61 -63 87 -185 27 -127 30 -293 6 -422 -9 -49 -19 -93 -23 -98 -3 -5 -3
-9 -1 -9 6 0 40 56 81 130 50 93 77 180 86 275 7 80 14 104 60 200 28 59 74
149 102 199 139 252 184 271 509 217 202 -34 314 -38 519 -21 145 12 212 29
325 84 168 81 308 199 640 535 105 106 204 199 221 207 18 7 67 39 110 70 99
70 278 159 364 179 176 40 264 4 727 -303 438 -291 500 -323 1123 -572 140
-56 350 -149 466 -206 177 -87 219 -104 258 -104 l47 0 23 -52 c91 -206 427
-1150 730 -2053 446 -1328 668 -2119 733 -2615 18 -145 24 -511 10 -672 l-7
-88 139 0 140 0 8 57 c4 32 8 180 7 328 0 296 -15 438 -75 739 -131 656 -600
2151 -1162 3706 -234 647 -298 806 -357 880 -53 67 -101 82 -180 59 -36 -11
-43 -9 -151 49 -126 67 -255 124 -549 242 -421 168 -585 242 -718 321 -131 79
-552 361 -552 370 0 5 13 15 28 23 45 23 110 96 138 156 23 46 28 73 32 162
10 227 -91 626 -227 898 -211 420 -428 661 -669 742 -164 55 -328 49 -707 -27
-121 -25 -312 -60 -425 -79 -113 -19 -263 -48 -334 -65 -70 -17 -135 -31 -143
-31 -15 0 -15 -1 3 253 l6 77 101 52 c202 104 433 273 638 465 308 291 476
507 614 788 155 317 271 681 327 1026 l23 142 35 14 c207 83 440 263 578 445
177 235 298 518 366 858 51 256 66 372 66 517 l0 130 69 6 c77 6 111 20 111
43 0 25 -70 89 -195 179 -190 135 -374 279 -375 291 0 16 43 5 225 -56 189
-63 270 -80 388 -80 361 0 720 188 1095 574 108 111 108 122 -8 118 -123 -5
-394 32 -542 74 -258 73 -348 139 -767 561 -219 220 -268 279 -248 299 3 3 40
-1 82 -10 150 -31 551 -17 719 24 220 55 555 244 753 425 197 179 445 572 527
832 33 105 64 261 73 357 5 70 4 76 -13 76 -12 -1 -39 -29 -73 -75 -39 -55
-71 -86 -115 -113 -124 -78 -202 -103 -376 -123 -247 -28 -451 19 -752 173
-143 72 -236 132 -393 253 -179 138 -295 214 -440 287 -181 92 -368 177 -445
204 l-65 22 221 -5 c238 -6 298 0 434 45 214 70 342 171 439 345 65 119 90
195 146 452 67 305 91 494 64 511 -16 10 -63 -40 -142 -151 -87 -122 -177
-218 -322 -340 -167 -140 -274 -208 -460 -292 -294 -133 -565 -183 -1270 -233
-168 -12 -435 -3 -436 14 -1 6 38 30 87 55 88 47 275 197 362 292 129 141 174
315 175 664 0 328 -28 429 -225 820 -72 143 -139 272 -150 288 -21 29 -40 34
-56 15z m-3422 -4473 c194 -114 394 -210 640 -308 404 -161 643 -237 1030
-326 244 -56 545 -116 638 -127 90 -10 84 13 -16 59 -81 37 -209 124 -284 192
-58 53 -169 174 -233 255 -45 57 -125 182 -125 196 0 3 33 -35 73 -83 40 -49
97 -108 125 -132 110 -91 284 -178 452 -225 96 -27 249 -46 475 -57 265 -14
506 -7 715 20 330 42 323 42 339 -27 6 -26 25 -103 41 -172 74 -307 160 -784
160 -886 l0 -23 -167 6 c-228 8 -453 -17 -640 -72 -184 -53 -417 -149 -454
-186 -17 -17 -19 -36 -19 -151 0 -73 -4 -138 -8 -145 -6 -9 -32 -10 -112 -1
-142 14 -298 5 -383 -22 -38 -12 -71 -19 -74 -17 -3 3 -13 48 -23 100 -18 95
-37 144 -62 164 -21 18 -194 72 -281 88 -176 32 -756 46 -992 25 -216 -20
-621 -89 -740 -127 -90 -29 -313 -132 -804 -374 -266 -132 -486 -237 -488
-235 -2 2 -15 58 -29 125 -24 118 -127 532 -259 1035 -36 137 -65 253 -65 258
0 4 32 -26 72 -67 42 -45 112 -102 172 -142 56 -37 122 -86 147 -110 45 -44
45 -44 64 -23 17 19 17 26 6 88 -15 82 -60 234 -201 677 -173 540 -244 805
-215 805 5 0 40 -35 79 -77 81 -88 139 -128 315 -217 256 -130 438 -200 728
-280 369 -102 584 -141 844 -153 198 -9 250 10 117 42 -226 54 -639 367 -740
560 -46 88 -94 210 -104 261 l-7 39 79 -75 c55 -52 120 -99 214 -155z m4055
-1927 c2 -7 6 -70 8 -141 l5 -127 -30 45 c-66 99 -151 122 -230 62 -122 -93
-213 -444 -194 -750 18 -273 73 -460 168 -562 78 -86 153 -83 233 8 l47 52 -7
-170 c-8 -205 -32 -532 -40 -545 -10 -15 -154 -12 -220 5 -152 39 -407 198
-499 310 -117 144 -233 408 -265 600 -24 152 -22 356 10 695 10 108 40 266 57
296 8 15 202 112 307 154 73 28 150 42 345 60 105 9 156 13 263 18 23 1 39 -3
42 -10z m-2467 -208 c116 -13 214 -40 265 -75 l37 -26 0 -453 c0 -255 -5 -500
-11 -562 -20 -203 -75 -361 -165 -480 -121 -160 -249 -270 -394 -338 -115 -54
-187 -70 -320 -69 -222 1 -351 57 -523 223 -220 212 -338 412 -434 734 -67
227 -84 325 -90 522 -6 210 10 323 50 348 64 41 312 97 617 140 260 36 304 40
294 24 -5 -7 -21 -32 -36 -55 -185 -274 -195 -899 -20 -1205 73 -126 169 -195
258 -185 186 21 332 313 351 702 12 264 -49 547 -152 695 -17 25 -34 51 -39
58 -9 15 170 17 312 2z m3397 -166 c14 -9 25 -25 25 -37 0 -20 0 -20 -21 -1
-22 20 -44 54 -34 54 3 0 17 -7 30 -16z m-410 -260 c94 -20 144 -24 271 -24
l156 0 -6 -57 c-20 -169 -55 -307 -128 -508 -125 -346 -218 -519 -352 -658
-56 -58 -195 -162 -204 -153 -2 3 1 71 7 153 19 260 31 628 31 980 l0 342 55
-25 c30 -14 106 -36 170 -50z m-2009 -125 c98 -17 90 -6 92 -132 2 -171 20
-365 42 -444 11 -40 44 -127 74 -195 29 -68 62 -145 72 -173 10 -27 29 -68 43
-90 27 -43 145 -186 224 -270 57 -63 59 -80 16 -202 -56 -163 -59 -173 -43
-173 30 0 146 65 198 111 l54 49 58 -35 c115 -69 269 -109 473 -121 70 -5 111
-11 111 -18 0 -57 -69 -352 -117 -501 -172 -536 -377 -856 -774 -1212 -487
-436 -820 -566 -1384 -542 -286 13 -541 67 -950 203 -623 208 -1011 372 -1250
531 -129 86 -232 188 -412 411 -134 166 -229 260 -301 296 -67 33 -188 33
-251 -1 -38 -20 -63 -23 -197 -28 -181 -7 -232 3 -414 78 -241 98 -408 194
-517 293 -170 155 -312 488 -339 796 -18 217 65 567 177 742 35 54 111 118
141 118 10 0 64 21 118 46 132 60 238 75 356 52 84 -17 432 -138 474 -165 34
-22 50 -39 103 -105 99 -122 228 -352 252 -448 40 -162 61 -160 89 6 17 104
33 268 42 441 l6 122 47 19 c25 11 192 82 370 157 178 75 337 143 352 151 28
14 30 14 39 -11 6 -15 10 -37 10 -50 0 -25 77 -337 109 -437 39 -128 105 -273
178 -393 73 -122 227 -318 302 -385 161 -147 514 -270 772 -270 306 0 631 157
895 431 159 167 214 271 298 572 19 67 40 153 47 192 12 70 18 418 9 510 l-5
50 80 17 c96 20 152 22 231 7z m-3591 -4039 c33 -6 90 -20 126 -31 l66 -19 9
-198 c10 -217 10 -897 0 -935 -8 -34 -74 -79 -282 -192 -99 -54 -188 -104
-199 -111 -37 -26 -42 -18 -34 49 10 80 40 160 120 317 83 162 91 180 80 180
-16 0 -192 -152 -250 -216 -67 -73 -126 -163 -149 -226 -9 -26 -20 -48 -24
-48 -15 0 -38 106 -38 176 0 39 9 123 20 185 11 63 20 121 20 129 0 27 -27
-11 -73 -105 -76 -154 -92 -215 -91 -335 1 -126 31 -236 99 -371 24 -48 55
-114 69 -147 76 -179 214 -294 576 -476 283 -143 490 -230 910 -383 697 -253
904 -353 991 -479 33 -49 31 -49 -38 -2 -158 107 -602 285 -1056 422 -275 83
-308 92 -651 171 -523 121 -590 154 -877 436 -215 212 -280 315 -397 625 -109
287 -111 287 -81 -21 28 -285 95 -478 234 -670 85 -117 221 -270 293 -330 178
-149 305 -199 795 -310 136 -31 319 -76 405 -100 183 -50 499 -128 727 -178
88 -20 234 -52 325 -72 169 -38 237 -61 148 -51 -71 8 -355 44 -523 66 -82 11
-238 29 -345 40 -631 68 -1825 318 -2240 470 -138 51 -404 181 -500 246 -297
199 -307 402 -45 924 155 309 392 679 590 920 96 117 314 335 415 416 254 204
399 258 675 249 77 -2 167 -9 200 -15z m3299 -337 c-5 -151 -10 -200 -27 -248
-39 -114 -33 -339 13 -520 10 -38 24 -106 30 -150 22 -157 68 -252 167 -346
74 -70 128 -107 242 -164 50 -25 91 -48 91 -52 0 -8 -119 -301 -137 -338 -8
-16 -56 -97 -106 -178 -101 -166 -141 -209 -307 -326 -58 -41 -144 -103 -192
-139 -48 -35 -143 -95 -210 -134 -286 -163 -360 -247 -438 -500 -47 -152 -50
-160 -43 -111 7 52 -14 116 -83 256 -125 253 -234 364 -471 481 -163 81 -585
257 -833 348 -74 27 -139 54 -145 60 -19 19 70 85 153 112 309 101 675 80 945
-55 165 -82 212 -130 350 -360 51 -84 98 -154 105 -157 44 -14 -56 293 -176
538 -67 137 -170 238 -344 338 -152 88 -242 126 -348 148 -84 17 -93 16 -277
-38 -80 -23 -97 32 -38 119 59 88 390 410 745 724 401 356 611 507 1135 818
50 29 134 56 193 60 11 1 12 -35 6 -186z m1777 -107 c149 -35 287 -172 450
-447 38 -65 87 -155 108 -201 102 -222 189 -572 179 -725 -5 -74 -20 -94 -85
-112 -31 -9 -42 -7 -77 15 -23 14 -62 38 -88 54 -117 72 -263 78 -448 18 -161
-51 -233 -106 -420 -320 -159 -182 -493 -542 -619 -668 -249 -248 -329 -288
-651 -329 -126 -16 -175 -18 -260 -11 -58 5 -123 9 -145 10 -40 1 -40 1 47 45
105 53 359 221 479 316 101 80 192 175 247 256 50 75 214 393 235 458 27 79
65 136 166 250 133 149 261 260 356 308 101 51 214 75 410 87 169 10 242 2
419 -49 72 -21 133 -36 136 -34 15 14 -168 146 -279 203 -128 64 -378 108
-541 95 -76 -6 -193 -31 -243 -51 -18 -6 -18 -5 1 32 34 66 80 122 114 140 24
12 56 17 118 16 87 -1 191 -10 223 -18 39 -12 13 18 -40 45 -160 80 -309 101
-399 56 -70 -35 -278 -255 -412 -437 -42 -56 -62 -76 -75 -73 -43 9 -186 105
-252 170 -127 123 -197 310 -199 524 l-1 115 60 19 c134 41 301 79 500 112
116 19 299 53 408 76 340 69 468 81 578 55z m-2688 -2343 c5 -26 4 -26 -9 -8
-16 22 -18 35 -5 35 5 0 11 -12 14 -27z m-536 -539 c-3 -3 -12 -4 -19 -1 -8 3
-5 6 6 6 11 1 17 -2 13 -5z m-3012 -4654 c-10 -11 -21 -17 -24 -14 -3 3 3 12
13 20 28 20 32 17 11 -6z"/>
<path d="M10610 14873 c-103 -12 -335 -70 -495 -125 -316 -106 -878 -426
-1067 -606 -151 -145 -383 -492 -329 -492 7 0 65 41 129 92 93 73 151 108 285
174 307 151 704 308 1002 395 194 57 263 84 389 146 200 100 326 195 342 258
28 111 -80 178 -256 158z m-1860 -1187 c0 -3 -4 -8 -10 -11 -5 -3 -10 -1 -10
4 0 6 5 11 10 11 6 0 10 -2 10 -4z"/>
<path d="M12254 14836 c-135 -26 -186 -75 -187 -181 -1 -97 64 -176 201 -242
141 -68 201 -74 703 -78 245 -1 463 -6 485 -9 27 -5 45 -2 59 8 20 14 19 15
-15 51 -84 88 -309 251 -435 313 -97 48 -199 85 -325 118 -119 32 -372 42
-486 20z"/>
<path d="M7310 4072 c0 -15 44 -142 212 -612 31 -88 171 -520 284 -880 119
-378 154 -557 154 -785 -1 -141 -11 -163 -25 -55 -16 118 -95 349 -173 505
-68 137 -217 362 -403 610 -112 149 -182 230 -173 200 7 -20 115 -260 200
-443 24 -52 44 -95 44 -97 0 -2 14 -34 31 -72 17 -37 37 -82 45 -99 31 -70 83
-215 108 -306 57 -202 67 -272 73 -493 6 -239 -2 -311 -68 -635 -22 -107 -55
-283 -74 -390 -36 -207 -82 -460 -92 -497 l-5 -23 229 0 228 0 68 393 c47 268
92 487 142 692 106 430 109 447 109 675 0 209 -11 284 -71 495 -85 298 -409
1041 -640 1470 -153 284 -203 369 -203 347z"/>
<path d="M14874 3538 c60 -104 103 -198 127 -278 19 -65 23 -104 26 -300 2
-124 0 -243 -4 -264 l-9 -40 -39 55 c-102 140 -449 514 -530 572 l-29 22 24
-40 c13 -22 72 -112 131 -200 285 -430 382 -629 409 -842 16 -130 -13 -681
-50 -958 -28 -202 -39 -317 -50 -520 -8 -153 -30 -673 -30 -727 0 -16 13 -18
143 -18 l143 0 12 242 c7 134 26 389 42 568 53 587 74 1049 66 1455 -12 648
-62 910 -214 1130 -44 63 -154 180 -186 197 -14 7 -9 -6 18 -54z"/>
<path d="M13450 3335 c-25 -30 -15 -100 50 -365 21 -85 41 -174 45 -197 l6
-41 -148 39 c-143 38 -213 48 -213 31 0 -26 158 -143 253 -188 96 -44 137 -29
137 51 l0 37 43 -9 c23 -4 70 -8 103 -8 l62 1 7 -90 c13 -169 43 -164 72 12
10 61 21 112 25 112 5 0 8 -7 8 -15 0 -19 48 -31 69 -18 21 13 24 47 8 106
l-12 48 35 38 35 37 10 -110 c6 -62 15 -111 21 -113 6 -2 22 22 36 54 14 32
35 78 47 103 l21 45 -6 -75 c-10 -113 -7 -180 11 -280 15 -78 28 -111 40 -99
1 2 -6 47 -17 99 -16 79 -18 115 -13 215 11 180 11 198 -1 202 -10 3 -34 -43
-92 -177 l-19 -45 -7 100 c-12 163 -29 199 -53 114 -12 -41 -38 -79 -54 -79
-5 0 -11 11 -15 24 -17 68 -67 16 -70 -73 -3 -79 -40 -298 -49 -289 -3 2 -10
82 -16 177 -11 191 -10 198 53 251 29 25 29 27 19 70 -19 74 -53 141 -70 138
-37 -7 -43 -45 -37 -250 5 -228 7 -224 -77 -214 -99 12 -125 23 -132 59 -4 17
-31 131 -61 252 -38 153 -54 235 -52 270 3 46 5 50 33 56 29 6 29 7 4 8 -15 0
-32 -6 -39 -14z m391 -251 c25 -71 23 -87 -16 -128 l-35 -37 0 79 c0 146 19
178 51 86z m89 -219 c0 -14 -9 -29 -20 -35 -23 -12 -24 -6 -9 38 12 36 29 34
29 -3z m30 -95 c12 -51 8 -70 -15 -70 -18 0 -35 31 -35 64 0 14 -5 26 -12 26
-15 0 23 29 39 30 6 0 16 -22 23 -50z m-559 -22 l159 -41 0 -44 c0 -30 -5 -45
-16 -50 -24 -9 -89 14 -164 59 -69 41 -163 117 -146 118 5 0 80 -19 167 -42z"/>
<path d="M13550 3326 c0 -2 7 -7 16 -10 8 -3 12 -2 9 4 -6 10 -25 14 -25 6z"/>
</g>
</svg>
